<?xml version="1.0" standalone="no"?>
<!DOCTYPE svg PUBLIC "-//W3C//DTD SVG 20010904//EN"
 "http://www.w3.org/TR/2001/REC-SVG-20010904/DTD/svg10.dtd">
<svg version="1.0" xmlns="http://www.w3.org/2000/svg"
 width="1280.000000pt" height="960.000000pt" viewBox="0 0 1280.000000 960.000000"
 preserveAspectRatio="xMidYMid meet">
<metadata>
Created by potrace 1.15, written by Peter Selinger 2001-2017
</metadata>
<g transform="translate(0.000000,960.000000) scale(0.100000,-0.100000)"
fill="#000000" stroke="none">
<path d="M999 6237 c-98 -52 -136 -173 -85 -272 l26 -50 -11 -459 c-7 -326 -7
-493 0 -577 6 -65 11 -149 11 -188 0 -63 -2 -71 -19 -71 -25 0 -43 -24 -39
-53 2 -16 -8 -36 -30 -61 -26 -30 -32 -45 -32 -84 0 -49 27 -108 55 -118 10
-4 13 -14 9 -29 -8 -31 12 -65 37 -65 23 0 22 35 8 -800 -1 -25 1 -359 5 -743
l6 -699 -38 6 c-227 33 -636 43 -686 17 l-26 -14 21 -23 c12 -12 18 -27 14
-33 -3 -6 5 -16 19 -23 27 -12 35 -45 15 -65 -8 -8 -6 -14 10 -22 18 -10 19
-15 9 -31 -10 -16 -8 -22 15 -40 18 -15 26 -28 22 -40 -4 -13 3 -21 25 -30 41
-17 45 -27 24 -52 -21 -22 -23 -19 50 -71 14 -10 23 -23 20 -31 -13 -35 129
-87 343 -125 143 -26 350 -57 428 -63 29 -3 30 -5 35 -63 6 -69 11 -72 125
-74 58 -1 101 -11 235 -56 203 -69 442 -125 938 -221 210 -41 472 -96 582
-124 245 -62 504 -104 760 -125 211 -17 392 -38 735 -86 201 -28 236 -31 405
-26 119 3 243 0 345 -9 510 -44 913 -58 1122 -39 87 8 356 20 598 25 242 6
509 17 594 25 177 17 755 100 1041 150 107 19 278 41 379 50 218 19 366 49
889 179 207 52 449 108 537 125 166 32 492 121 604 166 36 14 77 25 92 25 36
0 82 18 75 29 -6 8 80 41 334 129 58 19 107 39 110 42 3 4 99 12 213 19 276
15 470 41 582 77 100 33 92 58 -25 78 -39 6 -74 17 -78 22 -4 6 -59 26 -122
45 -63 18 -130 43 -148 55 -18 13 -58 28 -88 34 -29 6 -54 15 -54 20 0 8 -27
19 -175 71 l-80 28 -7 88 c-5 48 -6 102 -3 118 6 36 16 602 20 1115 2 195 6
446 10 557 l8 202 28 10 c16 5 29 17 29 25 0 9 13 22 29 30 16 9 40 29 55 46
44 53 32 149 -26 197 -13 10 -28 28 -34 38 -6 12 -26 22 -45 25 l-34 5 1 250
c0 138 4 459 8 714 l7 465 24 40 c65 111 27 239 -88 298 -60 30 -152 22 -209
-18 -87 -61 -115 -172 -68 -268 l22 -46 -6 -653 c-4 -358 -9 -716 -12 -794 -5
-136 -6 -142 -30 -158 -14 -9 -24 -25 -24 -40 0 -21 -8 -27 -72 -45 -40 -12
-125 -37 -188 -55 -63 -19 -170 -48 -238 -65 l-122 -32 -31 26 c-37 32 -77 33
-113 5 l-28 -22 7 129 c3 71 11 139 17 150 5 12 27 27 48 33 42 12 86 58 96
98 8 30 -10 96 -31 113 -8 7 -15 20 -15 30 0 27 -26 43 -65 38 l-35 -4 -2 196
c0 107 -3 287 -4 400 -2 113 2 327 7 475 10 231 14 274 29 300 42 70 33 158
-23 222 -40 45 -82 63 -148 63 -138 0 -230 -146 -171 -272 17 -36 21 -72 26
-213 3 -93 3 -204 -1 -245 -5 -41 -6 -120 -3 -175 3 -55 1 -235 -4 -400 -5
-165 -9 -335 -8 -377 2 -75 1 -78 -21 -78 -13 0 -28 -5 -35 -12 -15 -15 -15
-51 0 -66 14 -14 29 -8 -172 -66 -308 -89 -402 -110 -414 -94 -6 8 -21 20 -34
27 -42 22 -111 -16 -112 -61 0 -11 -13 -21 -37 -27 -62 -16 -248 -58 -403 -90
-80 -16 -210 -46 -290 -65 -144 -34 -363 -73 -575 -102 -60 -8 -122 -17 -137
-20 -20 -4 -28 -1 -33 15 -16 51 -127 41 -141 -13 -3 -14 -9 -26 -13 -26 -3 0
-49 -7 -101 -15 -146 -22 -451 -53 -695 -70 -121 -8 -301 -22 -400 -30 -212
-17 -315 -19 -315 -5 0 6 -9 19 -20 30 -41 41 -130 17 -130 -34 0 -17 -23 -18
-457 -13 -424 6 -731 16 -995 33 -101 6 -107 8 -112 30 -7 28 -36 45 -77 46
-31 1 -69 -26 -69 -49 0 -10 -8 -13 -27 -9 -16 2 -68 8 -118 11 -199 13 -1221
158 -1412 200 -15 4 -23 13 -23 25 0 22 -53 60 -82 60 -9 0 -31 -12 -48 -26
l-31 -27 -137 23 c-185 30 -717 158 -992 238 l-95 28 -3 344 c-1 190 -3 377
-5 415 -1 39 1 234 5 435 6 318 10 370 25 400 9 19 19 60 21 90 5 73 -34 152
-96 195 -58 40 -165 47 -226 16 l-38 -20 -33 34 c-63 68 -164 85 -246 42z
m9289 -2039 c8 -10 26 -18 40 -18 l24 0 -7 -167 c-4 -93 -12 -171 -17 -174 -6
-4 -61 -16 -122 -28 -61 -12 -180 -38 -263 -58 -84 -20 -155 -34 -158 -31 -4
3 -21 73 -38 155 -31 144 -32 149 -15 182 17 34 21 36 200 87 101 29 217 64
258 77 65 20 75 21 79 8 1 -9 10 -24 19 -33z m-7794 -241 l310 -63 8 -29 c4
-16 6 -31 4 -33 -6 -6 -937 217 -1063 255 -93 28 -123 41 -123 53 0 9 2 19 5
22 3 2 127 -28 277 -69 150 -40 412 -101 582 -136z m7109 76 c8 -10 22 -46 31
-80 24 -92 57 -256 52 -260 -5 -6 -328 -60 -498 -83 l-146 -20 -31 31 c-28 27
-37 31 -68 26 -41 -7 -69 -29 -77 -61 -5 -20 -18 -23 -158 -43 -176 -25 -596
-68 -602 -62 -3 2 -10 51 -16 108 -10 95 -10 107 7 138 10 19 27 36 38 38 11
2 81 14 155 25 171 27 702 134 1015 204 132 30 249 54 261 55 11 1 28 -7 37
-16z m1775 -63 c26 -25 35 -29 63 -23 l32 6 -7 -364 c-19 -1060 -29 -1574 -32
-1577 -1 -2 -17 3 -36 12 -44 20 -118 37 -198 45 l-65 6 -42 195 c-24 107 -58
283 -77 390 -20 107 -49 251 -65 320 -16 69 -41 190 -56 270 -14 80 -44 230
-66 333 -27 122 -37 192 -31 200 5 7 12 23 15 37 6 23 18 28 130 58 68 18 184
53 258 77 74 23 137 43 141 44 3 1 20 -12 36 -29z m-9607 0 c174 -53 463 -127
729 -186 162 -36 296 -67 298 -69 3 -2 -16 -89 -42 -192 -56 -228 -64 -268
-126 -601 -60 -321 -85 -436 -149 -709 -28 -117 -65 -283 -81 -370 -43 -220
-38 -205 -58 -199 -9 3 -49 12 -89 20 -146 31 -402 98 -524 138 l-127 42 -8
295 c-4 163 -6 411 -4 551 5 338 5 485 -5 795 -4 143 -4 308 0 367 7 107 7
108 28 93 12 -8 29 -15 39 -15 19 0 50 38 42 52 -8 12 7 10 77 -12z m1929
-224 c222 -33 509 -65 738 -85 56 -4 105 -11 109 -15 3 -3 8 -31 11 -62 4 -54
4 -55 -19 -50 -13 3 -127 19 -254 36 -218 29 -760 115 -797 126 -10 3 -18 14
-18 24 0 27 -47 60 -87 60 -24 0 -41 -8 -58 -26 l-24 -26 -113 21 c-196 37
-268 54 -268 62 0 5 4 9 8 9 5 0 14 10 21 23 l12 23 252 -43 c139 -24 358 -59
487 -77z m6966 31 c24 -25 47 -127 144 -622 34 -170 78 -391 100 -490 21 -99
55 -263 75 -365 19 -102 38 -194 41 -206 5 -20 1 -21 -158 -27 -90 -4 -183 -9
-208 -13 l-45 -6 1 363 c2 521 16 1389 23 1389 3 0 15 -10 27 -23z m-2701 -63
c13 -21 51 -236 42 -240 -7 -3 -568 -46 -664 -51 l-122 -6 -10 25 c-22 59
-123 60 -151 2 l-15 -31 -230 -6 c-126 -4 -272 -7 -322 -7 l-93 0 0 72 c0 39
5 86 12 103 l11 32 141 7 c317 15 658 44 966 81 433 52 413 52 435 19z m2377
-71 c2 -49 0 -255 -4 -459 -4 -203 -10 -527 -12 -720 -3 -192 -7 -358 -9 -369
-3 -15 -24 -27 -78 -47 -108 -39 -115 -38 -124 20 -9 66 -85 440 -134 662 -22
102 -52 248 -65 325 -13 77 -34 179 -46 225 -22 87 -71 332 -67 336 1 0 90 20
197 43 107 23 220 48 250 55 93 23 88 27 92 -71z m-7242 9 l184 -38 8 -35 c9
-45 -4 -122 -62 -359 -26 -107 -69 -303 -94 -435 -114 -589 -148 -755 -202
-980 -31 -132 -58 -241 -59 -243 -3 -3 -301 37 -363 49 -50 10 -53 12 -48 37
3 15 24 113 47 217 22 105 56 271 75 370 19 99 46 227 59 285 28 122 84 387
160 760 74 363 85 410 99 410 6 0 94 -18 196 -38z m1795 -22 c275 -19 655 -31
1012 -31 l362 -1 15 -39 c9 -22 16 -65 16 -96 l0 -56 -107 7 c-60 4 -227 11
-373 16 -146 5 -309 12 -363 16 -92 6 -98 8 -103 31 -14 56 -106 74 -143 27
-11 -14 -21 -29 -23 -33 -5 -13 -375 21 -500 45 -35 7 -37 38 -5 88 26 41 17
40 212 26z m4835 -132 c11 -51 32 -154 45 -228 13 -74 36 -184 50 -245 15 -60
40 -177 55 -260 16 -82 58 -289 94 -460 35 -170 61 -313 58 -316 -4 -4 -41
-16 -82 -29 -41 -12 -151 -48 -243 -81 -124 -43 -208 -66 -320 -85 -84 -15
-164 -29 -178 -31 -25 -5 -27 -2 -33 46 -4 28 -13 133 -21 233 -8 101 -21 233
-29 293 -9 61 -25 227 -36 370 -12 143 -32 347 -45 453 -30 229 -30 241 -7
284 9 18 17 34 17 35 0 1 95 18 210 38 116 20 251 44 300 54 151 31 140 36
165 -71z m-5930 27 c179 -30 411 -66 515 -80 105 -14 200 -28 212 -30 22 -5
22 -9 17 -83 -3 -42 -14 -149 -24 -237 -11 -88 -26 -241 -35 -340 -9 -99 -33
-331 -55 -515 -38 -331 -63 -575 -76 -761 l-6 -95 -207 4 c-245 4 -479 33
-736 92 -93 22 -222 44 -285 51 -63 6 -118 15 -122 18 -4 3 0 35 8 71 9 36 28
135 44 220 16 85 40 205 55 265 27 112 95 435 166 785 96 474 132 624 158 657
14 18 30 33 36 33 5 0 156 -25 335 -55z m5093 -98 c20 -34 42 -192 72 -514 8
-92 26 -274 40 -403 14 -129 37 -341 50 -470 14 -129 27 -252 29 -272 4 -42
16 -35 -112 -68 -21 -5 -109 -23 -195 -39 -86 -16 -226 -48 -313 -71 -86 -22
-158 -39 -160 -38 -5 6 -32 238 -49 423 -8 94 -19 204 -25 245 -5 41 -14 136
-20 210 -6 74 -17 185 -25 245 -8 61 -24 218 -35 350 -11 132 -22 263 -25 292
l-6 52 43 5 c130 17 479 59 583 70 66 8 122 14 125 15 3 0 13 -14 23 -32z
m-3953 -52 c107 -9 204 -18 215 -20 26 -5 48 -63 41 -107 -3 -18 -13 -125 -22
-238 -8 -113 -22 -250 -29 -305 -8 -55 -19 -161 -25 -235 -14 -177 -44 -458
-80 -755 -16 -132 -32 -275 -36 -317 -4 -43 -10 -78 -13 -78 -32 0 -449 32
-491 38 -68 9 -68 5 -41 199 11 82 27 231 36 333 9 102 25 259 35 351 11 91
24 230 30 310 6 79 19 221 30 314 11 94 26 233 35 310 8 77 18 160 21 184 l6
44 46 -6 c26 -3 135 -13 242 -22z m3084 -52 c3 -21 8 -69 11 -108 6 -66 48
-465 80 -745 7 -69 23 -231 35 -360 24 -276 50 -526 57 -556 4 -20 -2 -22 -79
-34 -46 -7 -180 -29 -298 -50 -118 -21 -276 -43 -350 -49 -74 -6 -172 -13
-216 -17 l-82 -6 4 917 c3 855 4 920 21 955 l18 38 120 6 c184 10 568 36 585
40 8 2 31 4 52 5 35 1 36 -1 42 -36z m-2179 -8 c171 -8 343 -15 382 -15 l73 0
-3 -985 c-2 -541 -5 -987 -8 -989 -2 -2 -75 0 -163 5 -127 8 -189 7 -310 -5
-157 -17 -671 -23 -692 -8 -13 8 0 177 41 552 14 124 29 288 35 365 6 77 24
250 40 385 16 135 36 322 45 415 21 225 25 255 34 255 4 0 13 12 20 26 l12 27
92 -7 c51 -3 232 -13 402 -21z m1222 -50 c15 -27 16 -100 13 -795 -2 -421 -4
-833 -5 -917 l0 -151 -75 -7 c-41 -4 -120 -13 -175 -20 -163 -23 -417 -46
-424 -40 -6 7 -14 1933 -7 1950 2 6 121 10 330 10 l326 0 17 -30z m3465 -1451
c34 -8 78 -24 97 -33 20 -10 63 -26 96 -36 33 -9 67 -23 76 -32 10 -8 40 -20
69 -28 28 -7 56 -18 63 -23 7 -6 52 -22 101 -36 49 -14 90 -27 92 -28 1 -2 4
-16 6 -32 2 -24 -1 -30 -24 -37 -30 -8 -137 26 -248 80 -36 17 -74 31 -85 31
-10 0 -69 24 -130 54 -60 30 -135 61 -165 69 -30 7 -69 21 -85 30 l-30 15 25
10 c14 5 32 12 40 15 8 3 21 4 28 1 7 -2 40 -11 74 -20z m-664 -187 c16 -13
155 -71 246 -103 38 -13 87 -34 110 -47 23 -13 86 -41 141 -62 55 -21 103 -41
108 -44 4 -4 -17 -15 -47 -25 -54 -16 -56 -16 -95 4 -22 11 -46 20 -52 20 -7
0 -22 9 -33 19 -12 11 -49 29 -83 40 -82 27 -243 100 -293 131 -8 5 -42 22
-75 36 l-60 26 40 13 c41 13 70 11 93 -8z m-602 -183 c22 -9 46 -22 54 -29 8
-7 77 -41 153 -75 76 -34 153 -70 170 -80 18 -10 50 -23 72 -30 22 -7 48 -20
59 -29 17 -15 16 -17 -30 -27 -45 -10 -53 -9 -104 17 -30 15 -80 37 -110 49
-30 12 -62 28 -70 35 -9 8 -50 30 -92 49 -118 54 -158 82 -158 111 0 29 5 30
56 9z m-6941 -55 c28 -7 54 -26 87 -62 51 -56 58 -71 31 -63 -10 2 -34 8 -53
11 -36 8 -94 59 -117 102 -14 27 -8 28 52 12z m6298 -93 c41 -18 77 -38 81
-44 3 -6 23 -16 44 -23 20 -7 73 -33 117 -58 44 -25 117 -64 163 -87 69 -35
79 -43 60 -48 -35 -9 -106 -7 -113 3 -3 5 -18 12 -35 16 -16 3 -56 24 -88 45
-33 21 -111 64 -173 95 -63 31 -120 62 -128 69 -7 6 -32 18 -55 27 -44 18 -46
17 29 32 11 3 21 5 22 6 1 0 35 -14 76 -33z m-5488 -122 c36 -37 64 -69 61
-71 -2 -2 -24 1 -49 7 -42 11 -64 28 -131 99 l-29 31 41 0 c39 0 48 -6 107
-66z m4834 -1 c53 -26 119 -62 148 -80 29 -18 55 -33 59 -33 4 0 15 -6 23 -14
9 -8 54 -35 100 -59 l84 -45 -47 -7 c-42 -7 -55 -3 -134 35 -109 53 -98 47
-174 98 -34 23 -102 62 -150 85 -48 23 -88 45 -88 49 0 8 26 15 59 17 14 0 68
-20 120 -46z m-4180 -45 c28 -24 64 -54 81 -66 16 -13 35 -33 41 -44 10 -19 9
-20 -33 -13 -55 9 -51 7 -143 93 l-79 72 42 0 c34 0 50 -7 91 -42z m3519 -51
c148 -91 275 -164 325 -188 26 -13 47 -27 47 -31 0 -12 -119 -9 -143 4 -12 6
-44 27 -72 47 -69 50 -83 58 -141 86 -28 13 -54 30 -57 38 -3 8 -22 20 -41 27
-30 10 -36 16 -36 41 0 41 16 38 118 -24z m-2750 -60 c42 -35 97 -82 122 -105
l45 -42 -50 0 c-54 0 -45 -6 -250 178 l-50 45 53 -7 c45 -6 64 -16 130 -69z
m2042 18 c41 -25 80 -45 86 -45 6 0 21 -12 35 -26 13 -14 63 -51 112 -81 48
-31 86 -57 84 -59 -1 -2 -23 -4 -48 -5 -42 -2 -54 3 -125 53 -44 30 -95 63
-114 73 -19 9 -53 32 -75 50 -22 18 -55 40 -74 50 -26 13 -31 19 -20 26 28 18
66 8 139 -36z m-1395 -10 c30 -19 55 -39 55 -44 0 -5 38 -36 85 -70 47 -34 85
-66 85 -72 0 -5 -17 -9 -38 -9 -30 0 -54 12 -129 69 -89 65 -183 146 -183 156
0 3 16 5 35 5 24 0 54 -12 90 -35z m655 25 c0 -5 30 -29 68 -54 37 -25 103
-70 147 -101 44 -30 93 -64 110 -75 l30 -20 -62 0 c-34 0 -65 5 -68 10 -4 6
-25 20 -48 31 -22 12 -71 47 -108 79 -37 32 -96 75 -131 95 -34 20 -65 39 -67
41 -2 2 26 4 62 4 37 0 67 -4 67 -10z"/>
</g>
</svg>
